<?xml version="1.0" encoding="UTF-8" standalone="no"?>
<!-- Created with Inkscape (http://www.inkscape.org/) -->

<svg
   xmlns:dc="http://purl.org/dc/elements/1.1/"
   xmlns:cc="http://creativecommons.org/ns#"
   xmlns:rdf="http://www.w3.org/1999/02/22-rdf-syntax-ns#"
   xmlns:svg="http://www.w3.org/2000/svg"
   xmlns="http://www.w3.org/2000/svg"
   xmlns:sodipodi="http://sodipodi.sourceforge.net/DTD/sodipodi-0.dtd"
   xmlns:inkscape="http://www.inkscape.org/namespaces/inkscape"
   id="svg3406"
   version="1.1"
   inkscape:version="0.91 r13725"
   width="320"
   height="320"
   viewBox="0 0 320 320"
   sodipodi:docname="icon.svg">
  <metadata
     id="metadata3412">
    <rdf:RDF>
      <cc:Work
         rdf:about="">
        <dc:format>image/svg+xml</dc:format>
        <dc:type
           rdf:resource="http://purl.org/dc/dcmitype/StillImage" />
        <dc:title></dc:title>
      </cc:Work>
    </rdf:RDF>
  </metadata>
  <defs
     id="defs3410" />
  <sodipodi:namedview
     pagecolor="#ffffff"
     bordercolor="#666666"
     borderopacity="1"
     objecttolerance="10"
     gridtolerance="10"
     guidetolerance="10"
     inkscape:pageopacity="0"
     inkscape:pageshadow="2"
     inkscape:window-width="1920"
     inkscape:window-height="1054"
     id="namedview3408"
     showgrid="false"
     inkscape:zoom="0.6796875"
     inkscape:cx="472.67452"
     inkscape:cy="59.72718"
     inkscape:window-x="1920"
     inkscape:window-y="0"
     inkscape:window-maximized="1"
     inkscape:current-layer="svg3406" />
  <path
     style="fill:#9d130f;fill-opacity:1"
     d="m 87.683635,287.78493 c -3.54051,-1.86986 -6.79148,-4.97996 -9.09781,-8.70359 -3.08632,-4.98291 -3.57725,-7.01169 -3.50687,-14.49202 0.1288,-13.68812 7.16549,-31.69969 19.82804,-50.75315 2.27839,-3.42833 4.14253,-6.72155 4.14253,-7.31828 0,-0.59672 -6.04687,-7.6923 -13.4375,-15.76795 -15.40428,-16.83206 -20.62458,-24.87086 -23.52167,-36.22124 -4.71163,-18.45948 4.1987,-39.16122 20.41675,-47.43505 11.36062,-5.79575 28.152975,-5.60563 38.461315,0.43546 6.44897,3.77936 9.3311,7.48575 9.3311,11.99977 0,7.30797 -8.36576,9.68112 -14.86108,4.21567 -5.52689,-4.65056 -10.78129,-5.83055 -18.699105,-4.19923 -16.65864,3.43217 -24.37576,21.7919 -16.0451,38.17276 3.88393,7.6371 8.55088,13.52292 20.350725,25.66571 l 9.29419,9.56431 9.70591,-9.87681 c 7.9358,-8.07552 10.40451,-9.87681 13.53646,-9.87681 4.66872,0 7.968,3.35217 7.968,8.09579 0,2.72271 -2.40095,6.01455 -10.55972,14.47798 l -10.55973,10.95404 4.20476,8.35721 c 14.84911,29.51353 10.05954,61.9681 -10.66955,72.29784 -8.78093,4.37573 -18.483245,4.52619 -26.281645,0.40759 z m 20.823795,-16.44395 c 6.13895,-4.6824 8.48657,-12.15567 7.75253,-24.67891 -0.60528,-10.32639 -4.28256,-23.62777 -6.56061,-23.73084 -0.66229,-0.03 -3.90933,4.65762 -7.21566,10.41688 -9.861315,17.17737 -13.606295,33.57185 -8.865425,38.81045 3.01041,3.32647 9.956065,2.94508 14.889165,-0.81758 z m 86.62724,-78.85334 c -11.8886,-3.66052 -21.6909,-16.43936 -26.78479,-34.91816 -5.4862,-19.90194 -2.44654,-79.487693 5.29262,-103.750006 7.79235,-24.429085 18.56418,-35.982143 33.54901,-35.982143 3.46034,0 8.05002,0.909356 10.19931,2.020792 5.65863,2.92619 12.48376,11.461327 15.05325,18.824737 2.91967,8.366959 2.899,30.570549 -0.0389,41.718552 -4.61078,17.496242 -14.49541,35.473698 -26.79375,48.730568 -6.76132,7.28831 -10.96963,8.40484 -15.31197,4.0625 -4.15694,-4.15694 -3.12213,-7.95827 4.48831,-16.48746 14.01096,-15.70237 22.54566,-35.00079 23.85398,-53.937937 0.8196,-11.86322 -0.74894,-19.036308 -5.36128,-24.517773 -11.57635,-13.757702 -24.91777,9.255872 -29.3508,50.629273 -2.21756,20.696557 -2.21043,54.135207 0.0138,64.169157 1.91228,8.62706 7.33742,17.76851 13.01455,21.92978 2.93224,2.14927 5.37817,2.58996 14.375,2.58996 12.37419,0 17.06403,-2.03599 28.61775,-12.42379 6.9959,-6.28991 12.16593,-7.40886 15.78007,-3.41528 3.77503,4.17137 2.56742,8.13441 -4.49377,14.7472 -8.41125,7.87712 -17.6473,13.71853 -25.41805,16.07585 -7.66231,2.32441 -23.02838,2.29146 -30.6843,-0.0658 z"
     id="path3513"
     inkscape:connector-curvature="0" />
</svg>
